<?xml version="1.0" encoding="utf-8"?>
<!-- Generator: Adobe Illustrator 23.0.6, SVG Export Plug-In . SVG Version: 6.00 Build 0)  -->
<svg version="1.1" id="Calque_1" xmlns="http://www.w3.org/2000/svg" xmlns:xlink="http://www.w3.org/1999/xlink" x="0px" y="0px"
	 viewBox="0 0 71.6 103.9" style="enable-background:new 0 0 71.6 103.9;" xml:space="preserve">
<style type="text/css">
	.st0{clip-path:url(#SVGID_2_);}
	.st1{opacity:0.5;}
	.st2{fill:#DADADA;}
	.st3{fill:#FCD8C1;}
	.st4{fill:#EFC2A5;}
	.st5{fill:#FFFFFF;}
	.st6{fill:#CAC9C9;}
	.st7{fill:#07121A;}
	.st8{fill:#FBDAC1;}
	.st9{clip-path:url(#SVGID_4_);}
	.st10{opacity:0.17;fill:#432C22;enable-background:new    ;}
	.st11{opacity:0.78;fill:#F1C5AA;enable-background:new    ;}
	.st12{fill:#271A14;}
	.st13{fill:#432C22;}
	.st14{fill:#D9B096;}
	.st15{fill:#3B271D;}
	.st16{clip-path:url(#SVGID_6_);}
	.st17{clip-path:url(#SVGID_8_);}
	.st18{fill:#10394F;}
	.st19{clip-path:url(#SVGID_10_);}
</style>
<title>Michael</title>
<g>
	<g>
		<g id="michael">
			<g>
				<defs>
					<rect id="SVGID_1_" x="-5" y="-68" width="175.9" height="175.9"/>
				</defs>
				<clipPath id="SVGID_2_">
					<use xlink:href="#SVGID_1_"  style="overflow:visible;"/>
				</clipPath>
				<g class="st0">
					<g class="st1">
						<path class="st2" d="M51.4,117.3l-0.3-0.2l1.6-0.8l-0.6-1l0.5-0.2c0,0,1-28.9,0.5-29s-5.3-8.7-5.3-8.7v-0.3l0.1-1.2l-0.2-0.1
							l-4.3-2.7c0.3-0.2,0.5-0.5,0.8-0.7c0.2-0.2,0.4-0.5,0.5-0.7c0.4-0.8,0.8-1.6,1.1-2.4c1.1-3,0.9-6.4,1.5-9.4
							c0-0.2,0-0.3,0.1-0.5c0.5-0.1,1-0.5,1.2-1c0.6-1.1,0.8-2.3,0.7-3.5c0,0,0,0,0-0.1c0.7-1.1,1.5-1.3,2.4-3.7
							c0.3-1,0.5-2,0.7-3.1c0.3-1.8,0.3-3.5,0.2-3.6l0,0c0.7-0.1,1.3-0.3,1.3-0.7c0,0,0-0.1,0-0.1c-0.3-1.1-1-2-2-2.5
							c-0.1-1.4-0.8-4.6-1.2-4.4c-0.3,0.6-0.5,1.2-0.7,1.9c-0.8-1.6-2-3-3.3-4.1c-2.3-2.1-5.3-3.3-8.4-3.6
							c-4.6-0.4-9.1,0.7-12.9,3.3c-0.9,0.6-1.3,1.1-1.3,1.2c0.3,0,0.6,0,0.9,0H25h0.6h0.1c-0.4,0.2-0.7,0.4-1.1,0.6
							c-1,0.7-2,1.5-2.7,2.5c-0.2,0.2-0.3,0.4-0.4,0.6c-0.2,0.3-0.4,0.6-0.6,0.9c-0.1,0.2-0.3,0.5-0.4,0.8c-1,2.3-0.1,7.7-0.1,7.8
							s0.2-0.3,0.3-0.6c0,0.1,0,0.2,0,0.3c-0.4,0.9-0.7,1.9-0.7,2.8c0,0.6,0.2,1.1,0.7,1.5c-1.2,3.4-3.6,9.9-3.3,11.4
							c0.1,0.4,0.2,0.9,0.3,1.7l-4.6-0.8l-1.4,1.1l-13.3-0.2c0,0-3.6,22.8-5.6,25.1s2.4,8.5,2.4,8.5l2.9-2.8l12.4,8.8
							c0,0,3.6,0.9,8.2,1.9l-0.1,0.9l0.4-0.4l0.1-0.4c5.9,1.3,13.1,2.8,15.8,2.8c4.8-0.1,4.4,0.4,6.4-2.6c1.8-2.8,3.9-16,4.2-18
							c6.3,1.1,2,28.8,4.8,25.8c2.3-2.5-8.7,4.9-8.7,4.9l0.6-0.3l0.4,0.7l1.1-0.5l-1-6l1.7,7.9c0,0,0.8,5.3,0.9,5.7"/>
					</g>
					<path class="st3" d="M22.1,64.6c0,0,0.7,12.1,1,12.8s7,2.8,7,2.8s4-5.4,4.3-6.1s2.2-6.5,2.2-6.5L22.1,64.6z"/>
					<path class="st4" d="M38.2,68.6c-1.1,3.7-5.5,5.6-9.8,4.3s-6.9-5.5-5.8-9.2s5.3-3,9.8-1.6C36.9,63.4,39.3,64.8,38.2,68.6z"/>
					<path class="st5" d="M23.3,65.3l3.2,11l7.8-5.8l3.9-1.4c0,0,0.3,6,0.2,6.6c-0.1,0.6-4.4,8.6-4.4,8.6l-10.6,1.1l-2.4-1.6
						l-5.2-9.9l1.2-7L23.3,65.3z"/>
					<polygon class="st6" points="22.2,73.2 25.1,71 26.4,74.9 27.3,75.6 29.7,74.7 30.9,76.6 24.8,79.5 22.4,87.3 24.3,78.7 
						25.7,75.7 					"/>
					<polygon class="st5" points="56.3,119.4 55,117.3 44.7,121.4 46.3,124.1 					"/>
					<path class="st7" d="M40.5,67.4l6.3,3.9l-0.1,1.4c0,0,5.8,6,6.3,6.1s3.3,39.3,3.3,39.3l-10.9,5.5c0,0-1.1-11.6-3.4-9.1
						c-3.8,4-0.3-29.9-1.7-30.1"/>
					<path class="st7" d="M36.7,71.6l1.1-1.6l0.4-0.9c0,0,2.6,0.6,3.6,1.9c1,1.6,1.7,3.5,2,5.3c0.2,1.4,0.7,8.6,0.7,8.6
						s-2.7,13.7-4.3,18.2c-1.2,3.4-9.3,26.1-14.1,26.2s-32.6-13.2-32.6-13.2l-6.7-4.7l7.4-16.6c0,0-4.4-6.2-2.4-8.5
						s-1.6-22.5-1.6-22.5l20.5-2.4l1.5-1.3l7,1.1l1.3,13.5l1.7-1.6l0.8,11.1l8.3-7.3l1,1.4l2.5-3.8c0.6-0.9,1.2-1.9,1.9-2.9
						c0.8-1.2,1.4-2.5,1.9-3.9c0-0.1,0.1-0.1,0.1-0.2c0.1-0.1,0.2-0.1,0.3-0.1c0.5-0.1,1-0.1,1.6,0c0.5,0.2,0.8,0.5,1,1
						c0.2,0.6,0.2,1.2,0,1.7c-0.2,0.6-0.4,1.1-0.5,1.7"/>
					<path class="st8" d="M21.8,43.7c0,0,0.3-2.9-1.1-1.4c-1.1,1.1-1.7,2.6-1.6,4.1c0,0.8,0.4,1.5,1.2,1.8L21.8,43.7z"/>
					<path class="st4" d="M20.8,42.9c-0.5,0.5-0.9,1.1-1.1,1.8c-0.1,0.7-0.2,1.3-0.2,2c0.1-0.6,0.3-1.2,0.5-1.8
						c0.2-0.1,0.3,0.6,0.3,0.6s0.5-1,0.1-1.2C20.6,43.9,20.8,42.9,20.8,42.9z"/>
					<path class="st3" d="M48.2,38.4c-0.3,2.4-0.6,5-1.1,7.4c-0.7,3.2-0.4,6.3-1,9.5c-0.6,3.1-0.4,6.5-1.5,9.4
						c-0.3,1.1-0.9,2.1-1.6,3.1c-0.6,0.7-1.3,1.2-2.1,1.6c-1.9,1.1-4.1,3.2-6.1,3.6c-1.5,0.2-3,0.2-4.5,0c-3.1-0.2-6.6-0.5-9.3-2.2
						c-3.1-1.9-4.5-9.7-4.8-11.4s2.7-9.4,3.7-12.4s2.4-11.4,2.4-11.4l11.2-6.8L48.2,38.4z"/>
					<path class="st8" d="M46.2,50c0,0,1.1-2.7,1.7-0.7c0.5,1.5,0.3,3.1-0.5,4.4c-0.3,0.7-1.1,1.1-1.8,1.1L46.2,50z"/>
					<path class="st4" d="M47.4,49.7c0.2,0.7,0.3,1.4,0.2,2.1c-0.2,0.6-0.5,1.3-0.8,1.9c0.2-0.6,0.3-1.2,0.4-1.8
						c-0.1-0.1-0.6,0.3-0.6,0.3s0-1.1,0.4-1.1C47.2,50.6,47.4,49.7,47.4,49.7z"/>
					<g>
						<defs>
							<path id="SVGID_3_" d="M48.3,38.3c-0.3,2.4-0.6,5-1.1,7.4c-0.7,3.2-0.4,6.2-1,9.5s-0.4,6.5-1.5,9.4c-0.3,1.1-0.9,2.1-1.5,3.1
								c-0.6,0.6-1.3,1.2-2.1,1.6c-1.9,1.1-4.2,3.2-6.1,3.6c-1.5,0.2-3,0.2-4.5,0c-3.1-0.2-6.6-0.5-9.3-2.2c-3.1-2-4.5-9.7-4.8-11.4
								s2.7-9.4,3.7-12.4s2.4-11.4,2.4-11.4l11.1-6.8L48.3,38.3z"/>
						</defs>
						<clipPath id="SVGID_4_">
							<use xlink:href="#SVGID_3_"  style="overflow:visible;"/>
						</clipPath>
						<g class="st9">
							<path class="st10" d="M26.8,59.6c-0.4,0.1-0.8,0.3-1.2,0.5c-0.7,0.5-1.4,1-2.1,1.4c-0.8,0.3-1.8,0.3-2.6,0
								c-1-0.5-1.9-1.3-2.4-2.4c-0.4-0.8-0.4-1.8-0.1-2.6c0.4-3.1,0.9-6.1,1.7-9.2c0.3-1,0.5-2,0.6-3c0.1-1.2-0.2-2.3-0.8-3.3
								c-0.1-0.3-0.4-0.6-0.7-0.7c-0.4,0-0.8,0.2-1,0.5c-1.3,1.4-1.5,3.2-2.3,4.8l-2.2,4.4L9,59.8c-1.4,2.8-2.8,5.7-4.2,8.5
								l44.1,34.8l2.7-36.9l-2.9-13.7c0,0-2.6-2.6-2.7-2.1c-0.4,1.9,0.1,4.5-0.5,6.3c-0.6,2-1.7,3.8-3.1,5.4
								c-0.1,0.5-1.3,1.1-1.7,1.4c-0.7,0.5-1.4,1.5-2.3,1.5c-0.4,0-0.8-0.1-1.2-0.3c-0.4-0.1-0.8-0.3-1.1-0.6
								c-0.7-0.6-1.2-1.2-1.7-2c-0.6-0.9-1.6-1.6-2.8-1.7C30.1,60,28.4,59.3,26.8,59.6z"/>
							<path class="st4" d="M40.2,49.4c0,0,0.2,0.6-0.6,2.1c-0.6,1.1-1,2.3-1.3,3.5c0,0-1.2-2.2-2.2-2.2c-1-0.1-1.4-0.6-2.1,0.2
								c-0.7,0.8-0.5,0.5-0.5,0.5c-0.3-0.6-0.3-1.4,0-2c0.4-1.3,1.3-3.6,1.5-4.3c0.1-0.3,0.2-0.7,0.3-1l1.6,0.5L40.2,49.4z"/>
							<path class="st11" d="M36.1,45.7L34,45.8c0,0-0.3,1.8-0.9,3.7S33,56.1,33,56.2c0.5,1,0.8,2,1.2,3.1c-0.1,0.3-2.1,1.1-2.1,1.1
								l-2.2-0.5c0,0,1.3-1.2,0,0c2.5,0.9,0.5,3,0.5,3s-4.9-1.7-3.8-1.2c1.1,0.4,2.1,0.8,3.3,1c0,0,1.7,1,0.4,1.9s-1.8,0.1-1.8,0.1
								s-1.4,3.9-3.2,5.1s-1,11-1,11l24.5-13.3l8.3-9.5L57.5,45l-7.6-9.3c0,0-14.2-4.1-14.2-4s-13.8,2.2-13.8,2.2
								c2,1.4,4.1,2.6,6.3,3.5c3.5,1.4,5.2,2.1,5.2,2.1c-0.6,0.2-1.2,0.4-1.9,0.6c-0.3,0-0.7,0-1-0.1c0,0,8.7,1.5,8.3,2.8
								C38.4,44.1,36.1,45.7,36.1,45.7z"/>
						</g>
					</g>
					<path class="st4" d="M32.7,45.3c-0.5,1.1-0.9,2.2-1.2,3.4c-0.4,1.1-0.9,2.1-1.6,3c0,0-0.4-1.1-1.1-1.3
						c-0.6-0.2-1.2-0.3-1.8-0.3c0,0-0.9,0.2-1.1,0.5c-0.1,0.2-0.2,0.3-0.4,0.4c-0.1-1.5,0.1-3,0.4-4.5c0.2-0.5,0.5-0.9,0.9-1.3
						l2.8-0.4L32.7,45.3z"/>
					<path class="st12" d="M31,47c0,0-2.9-2.2-5.1-0.4c0.1-0.4,0.1-0.8,0.2-1.2c0.2-0.9,4.4-1.8,5.7-0.5L31,47z"/>
					<path class="st12" d="M34.6,48.2l0.4-2c0,0,5,1.1,5.1,2.8c0,0.5-0.1,0.9-0.2,1.4c-0.7-0.9-1.7-1.6-2.8-2
						C36.3,48.2,35.4,48.2,34.6,48.2z"/>
					<path class="st13" d="M33,62.5c0.2,0.1,0.4,0.4,0.4,0.7c0,0-0.5,0.5-0.9,0.4c-0.5-0.1-2.7-0.7-3-0.8s-2-0.5-2.6-0.7
						c-0.3-0.1-0.5-0.5-0.5-0.8l0.2-0.4c-0.6,0.3-1,0.9-1.1,1.5c0.1-0.4,0.7-0.6,0.7-0.6s-0.1,0.2,0.5,0.6c0.8,0.5,1.8,0.8,2.7,0.8
						c1.2,0.1,1.7,0.5,2.7,0.7c0.5,0.1,1,0,1.4-0.4c0,0,0,0.1,0.2,0.5C34.2,63,33,62.5,33,62.5z"/>
					<path class="st12" d="M25.5,50.9c0.3-0.4,1.4-1.7,2.8-1.3c0.9,0.3,1.5,1.1,1.6,2c0,0.4,0,0.4-0.2,0.1s-1-1.6-1.9-1.5
						c-0.7,0-1.3,0.3-1.8,0.8C25.7,51.3,25.2,51.3,25.5,50.9z"/>
					<path class="st12" d="M38.3,54.6c-0.3-1.2-1.2-2.2-2.4-2.6c-0.8-0.2-1.7,0.3-1.9,1.2c-0.2,0.3,0,0.3,0.3,0.2
						c0.3-0.2,1-1.1,1.8-0.6c0.8,0.4,1.4,1.1,1.8,1.8C37.9,54.9,38.3,55.1,38.3,54.6z"/>
					<path class="st14" d="M33.5,58.5c-0.1-0.2,0-0.1-0.1-0.4c0-0.3-0.1-0.6-0.3-0.9c0.3,0.5,0.6,1.1,0.9,1.6c0.2,0.6,0,1.3-0.4,1.7
						c-0.3,0.2-0.7,0.2-1,0c-0.3-0.2-0.5-0.5-0.8-0.4c-0.1,0-0.3,0.1-0.4,0.2c-0.7,0.4-1.5,0.3-2-0.4c0,0,0,0,0,0
						c-0.2-0.3-0.3-0.6-0.5-0.7s-0.7,0-1.1-0.2c-0.5-0.2-0.7-0.8-0.5-1.3c0.4-1.1,0.9-1.3,1.3-1.2c0.2,0,0.3,0.1,0.5,0.2
						c-0.2,0-0.3,0-0.5,0c-0.2,0.1-1.1,0.5-1,1.3S31.7,59.9,33.5,58.5z"/>
					<path class="st15" d="M51.3,39.7c0.7-0.1,1.3-0.3,1.3-0.7c-0.2-1.1-1-2.1-2-2.6c-0.1-1.4-0.8-4.6-1.2-4.4
						c-0.3,0.6-0.5,1.2-0.7,1.9c-2.4-4.3-6.8-7.2-11.7-7.7c-8.4-0.8-14.4,4.2-14.2,4.5l1.8-0.1c-2.3,1.2-4.1,3.1-5.2,5.4
						c-1,2.3-0.1,7.7-0.1,7.8s0.4-0.8,0.4-0.8c0,0,0,0.1,0,0.1c0.2-0.1,0.6,0.6,0.7,0.8S21,45,21,45c0.5-0.9,1-1.7,1.6-2.6
						c0.3-0.5,0.5-1,0.8-1.5s0.7-1,1-1.6l0.8-1.4c0.1-0.3,0.3-0.6,0.5-0.8c0.3-0.3,0.7,0,1,0c1,0.2,1.9,0.4,2.8,0.8
						c1.4,0.6,3.1,1.5,4.6,1.4c-1.3,0.4-2.6,0.6-3.9,0.6c-0.8-0.1-0.5,0.2,1.2,0.9c1.4,0.6,7.6-1.6,9.1-1.5c1.5,0.2,4.7,0.1,5.9,1.3
						c0.4,0.6,0.6,1.3,0.6,2c0,2.8-0.3,5.6-0.8,8.4c0.7,0.3,1.4-0.4,1.8-1.1c0.7-1.1,1.5-1.3,2.4-3.7C51.2,44.6,51.7,39.7,51.3,39.7
						z"/>
					<g>
						<defs>
							<path id="SVGID_5_" d="M51.3,39.7c0.7-0.1,1.3-0.3,1.3-0.7c-0.2-1.1-1-2.1-2-2.6c-0.1-1.4-0.8-4.6-1.2-4.4
								c-0.3,0.6-0.5,1.2-0.7,1.9c-2.4-4.3-6.8-7.2-11.7-7.7c-8.4-0.8-14.4,4.2-14.2,4.5l1.8-0.1c-2.3,1.2-4.1,3.1-5.2,5.4
								c-1,2.3-0.1,7.7-0.1,7.8s0.4-0.8,0.4-0.8c-0.5,0.9,1.1,0.4,0.5,3.5c1.6-2,5.1-9,5.4-9.3c0.6-0.6-0.4-0.4,0.4-0.2
								c1.2,0.3,2.4,0.7,3.5,1.2c1.4,0.7,3,1.1,4.6,1.1c-1.3,0.4-2.6,0.6-3.9,0.6c-0.8-0.1-0.5,0.2,1.2,0.9c1.4,0.6,7.6-1.6,9.1-1.5
								c1.5,0.2,4.7,0.1,5.9,1.3c0.4,0.6,0.6,1.3,0.5,2c0,2.8-0.3,5.6-0.8,8.4c0.7,0.3,1.4-0.4,1.8-1.1c0.7-1.1,1.5-1.3,2.4-3.7
								C51.2,44.6,51.7,39.7,51.3,39.7z"/>
						</defs>
						<clipPath id="SVGID_6_">
							<use xlink:href="#SVGID_5_"  style="overflow:visible;"/>
						</clipPath>
						<g class="st16">
							<path class="st12" d="M19.3,32.6l4.6-1.9c0,0-2.9,4.7-3.4,6s-0.1,4.5-0.1,4.5l0.7-0.3l0.5-0.5l-0.3,1l-0.4,2.9
								c0,0,4.2-6.9,4.7-7.5c-0.9-0.5-1.6-1.3-2.2-2.1c0,0,1.3,0.8,2.8,1.6c3.9,1.8,3.4,1.8,8.3,3L34,40.1c4.8-1.6,4.9-1.9,6.8-1.7
								c2.4,0.3,5.2,0.8,5.8,1.4c0.7,0.8,1,1.8,1,2.9c-0.2,0.6-0.6,7-0.6,7c1.2-0.5,2.3-1.4,2.9-2.6c0.7-1.7,1.6-4.7,1.6-4.7
								s3.1,1.1,3.3,2.5s0.8,14.5-4.8,14.4c-5.6-0.1-16.1-5.7-18.1-6.8s-9.2-7.4-9.2-7.4l-6.1,1.4c0,0-5.3-13.5-5.2-13.8
								c0.8-2.5,0.7-0.4,4.6-5.5L19.3,32.6z"/>
							<path class="st12" d="M40.4,25.5c0,0,6.5,4.7,8.6,9.2c0.3,0.4,0.5,0.8,0.7,1.2c0,0-0.1-2-0.2-3.8s0.8-1.8,0.8-1.8l2.7,3.5
								l1,4.3l-0.7,0.7c-1,0.1-2,0-2.9-0.3c0.3,0.5,0.6,1.2,1.5,1.2s3.8,1.2,4.6,0.1c0.8-1.5,1.4-3.1,2-4.7l-5.2-5.3"/>
							<path class="st12" d="M21.7,29.9c1.5-0.4,3-0.4,4.5,0c-1.9,0.9-4.7,2-6.8,6.3S17.5,36,17.5,36"/>
						</g>
					</g>
					<g>
						<defs>
							<path id="SVGID_7_" d="M40.5,67.4l6.3,3.9l-0.1,1.4c0,0,5.8,6,6.3,6.1s3.3,39.3,3.3,39.3l-10.9,5.5c0,0,0.3-10.3-2-7.9
								c-3.8,4-1.7-31.2-3-31.4"/>
						</defs>
						<clipPath id="SVGID_8_">
							<use xlink:href="#SVGID_7_"  style="overflow:visible;"/>
						</clipPath>
						<g class="st17">
							<path class="st18" d="M47.6,69.8l0.7,1.7c-1.2-0.7-2.7-0.3-3.5,0.9c-1.4,2.1-1.2,3.4-1.2,3.4s2.3-3.6,3.5-3.6
								c0.7,0.1,1.3-0.1,1.9-0.5C48.6,71.1,48.2,70.4,47.6,69.8z"/>
						</g>
					</g>
					<path class="st18" d="M39,74.2l-4.2,10l-2.5-2.3l-6.1,5l5.8-3.6c0,0,3.8,3.2,3.8,2.8C35.9,85.6,39,74.2,39,74.2z"/>
					<polygon class="st18" points="16.5,67.1 15.8,78.1 19.7,77.2 20.6,83.4 18.7,78.4 14.1,79.6 					"/>
					<path class="st18" d="M30.7,77.8c0,0-7.1,5.1-7.9,6.6s-3.7,10.8-3.7,10.8l-3.4,14.5l-0.1,1.5l0.4-0.4c0,0,4.7-19.8,5.3-21.2
						s2.7-5.6,2.7-5.6L30.7,77.8z"/>
					<path class="st18" d="M23.4,90.3c-0.2,0.6-0.6,1-1,0.9s-0.5-0.7-0.3-1.3s0.6-1,1-0.9S23.6,89.6,23.4,90.3z"/>
					<path class="st18" d="M21.2,99.8c-0.2,0.6-0.6,1-1,0.9s-0.5-0.7-0.3-1.3s0.6-1,1-0.9S21.4,99.2,21.2,99.8z"/>
					<path class="st18" d="M19.3,108.1c-0.2,0.6-0.6,1-1,0.9s-0.5-0.7-0.3-1.3s0.6-1,1-0.9S19.5,107.5,19.3,108.1z"/>
					<path class="st6" d="M26.2,80.4c-0.1,0.3-0.5,0.4-0.8,0.3c-0.2-0.1-0.3-0.4-0.1-0.7c0.1-0.3,0.5-0.4,0.8-0.3
						C26.3,79.8,26.3,80.1,26.2,80.4C26.2,80.3,26.2,80.4,26.2,80.4z"/>
					<path class="st5" d="M25.9,80.2c-0.1,0.1-0.2,0.2-0.3,0.2s-0.1-0.2,0-0.4s0.2-0.2,0.3-0.2S26,80.1,25.9,80.2z"/>
					<path class="st13" d="M27.8,64.1c0.7,0.4,1.5,0.6,2.3,0.8c0.4,0.1,1,0.2,1,0.2s-0.1,0.4-1.3,0.1s-2.3-0.7-2.3-0.7L27.8,64.1z"
						/>
					<g>
						<defs>
							<path id="SVGID_9_" d="M33.5,58.5c0.1-0.1,0.1-0.1,0-0.3c-0.1-0.3-0.2-0.7-0.4-1c0.3,0.5,0.6,1.1,0.9,1.6
								c0.2,0.6,0,1.3-0.4,1.7c-0.3,0.2-0.7,0.2-1,0c-0.3-0.2-0.5-0.5-0.8-0.4c-0.1,0-0.3,0.1-0.4,0.2c-0.7,0.4-1.5,0.3-2-0.4
								c0,0,0,0,0,0c-0.2-0.3-0.3-0.6-0.5-0.7s-0.7,0-1.1-0.2c-0.5-0.2-0.7-0.8-0.5-1.3c0.4-1.1,0.9-1.3,1.3-1.2
								c0.2,0,0.3,0.1,0.5,0.2c-0.2,0-0.3,0-0.5,0c-0.2,0.1-1.1,0.5-1,1.3S31.7,59.9,33.5,58.5z"/>
						</defs>
						<clipPath id="SVGID_10_">
							<use xlink:href="#SVGID_9_"  style="overflow:visible;"/>
						</clipPath>
						<g class="st19">
							<path class="st11" d="M30.5,60.7c0.6,0,0.7,0,0.9-0.3s0.6-0.9,0.8-0.8c0.2,0.1,0.8,0.5,0.4,0.7c-0.2,0.1-0.4,0.2-0.6,0.3
								L30.5,60.7z"/>
							<path class="st11" d="M26.7,59.7c0.6,0,0.7,0,0.9-0.3s0.6-0.9,0.8-0.8s0.8,0.5,0.4,0.7c-0.2,0.1-0.4,0.2-0.6,0.3L26.7,59.7z"
								/>
						</g>
					</g>
				</g>
			</g>
		</g>
	</g>
</g>
</svg>
