<svg xmlns="http://www.w3.org/2000/svg" version="1.1" xmlns:xlink="http://www.w3.org/1999/xlink" xmlns:svgjs="http://svgjs.com/svgjs" viewBox="0 0 140 140" width="140" height="140"><g transform="matrix(5.833333333333333,0,0,5.833333333333333,0,0)"><path d="M6.5,22.5h-5V9.5h5Zm9-9a2,2,0,0,0-2,2v7h-5V9.5h5v1.485A6.307,6.307,0,0,1,17.49,9.49c2.962,0,5.01,2.2,5.01,6.355V22.5h-5v-7A2,2,0,0,0,15.5,13.5ZM6.5,5A2.5,2.5,0,1,1,4,2.5,2.5,2.5,0,0,1,6.5,5Z" fill="none" stroke="#000000" stroke-linecap="round" stroke-linejoin="round"></path></g></svg>