<svg id="Calque_1" data-name="Calque 1" xmlns="http://www.w3.org/2000/svg" viewBox="0 0 178.35 178.35"><defs><style>.cls-1{fill:#fff;}.cls-2{fill:#231f20;fill-rule:evenodd;}</style></defs><title>Logo-Altazion-Noir-AvecElementBlanc</title><circle class="cls-1" cx="90.26" cy="89.35" r="65"/><path id="SVGID" class="cls-2" d="M105.57,45.89H94.29l-41.37,95.3a111.27,111.27,0,0,1,24.24-8c5.62-13.34,22.77-54.12,22.77-54.12l22.82,54.14a111.14,111.14,0,0,1,24.26,8ZM99.91,141.8a10.44,10.44,0,1,0-10.44-10.44A10.43,10.43,0,0,0,99.91,141.8Zm0,47.2a89.18,89.18,0,1,1,89.18-89.18A89.17,89.17,0,0,1,99.91,189Z" transform="translate(-10.74 -10.65)"/></svg>