<svg xmlns="http://www.w3.org/2000/svg" viewBox="0 0 142.52 59.95"><defs><style>.cls-1{fill:#1d1d1b;}</style></defs><title>nom</title><g id="Calque_2" data-name="Calque 2"><g id="Calque_1-2" data-name="Calque 1"><path class="cls-1" d="M6.93,22,1.14.47v21.6H.82V.16h.57l5.76,21.5L13,.16h.53V22.07h-.31V.47L7.37,22Z"/><path class="cls-1" d="M16.31,22.07H16V.16h.31Z"/><path class="cls-1" d="M27.83,5.54V7.2h-.31V5.54c0-2.78-1.07-5.23-4.2-5.23s-4.19,2.45-4.19,5.23V16.68c0,2.79,1.06,5.23,4.19,5.23s4.2-2.44,4.2-5.23V14.37h.31v2.31c0,2.95-1.19,5.54-4.51,5.54s-4.5-2.59-4.5-5.54V5.54C18.82,2.6,20,0,23.32,0S27.83,2.6,27.83,5.54Z"/><path class="cls-1" d="M30.64,22.07h-.31V.16h.31V11h8.45V.16h.32V22.07h-.32V11.27H30.64Z"/><path class="cls-1" d="M42.22,22.07h-.31L47.45.12h.44l5.66,22h-.31l-1.38-5.32H43.57Zm9.55-5.64L47.67.53l-4,15.9Z"/><path class="cls-1" d="M63,11.11H56.36V21.75h7.89v.32h-8.2V.16h8.2V.47H56.36V10.8H63Z"/><path class="cls-1" d="M66.75.16h.32V21.75h7.57v.32H66.75Z"/><path class="cls-1" d="M15,51.9C15,57,12.44,60,7.5,60S0,57,0,51.9V35.26c0-5.13,2.56-8,7.5-8s7.5,2.92,7.5,8v3.11H10.24V34.94c0-2.29-1-3.16-2.6-3.16S5,32.65,5,34.94V52.22c0,2.29,1,3.11,2.61,3.11s2.6-.82,2.6-3.11V47.65H15Z"/><path class="cls-1" d="M29.28,59.58l-.87-5.8H22.23l-.86,5.8H16.75l5.12-32h7.36l5.12,32ZM27.72,49.43,25.3,33.24,22.88,49.43Z"/><path class="cls-1" d="M46.75,55.65v-5c0-3-1-4.07-3.29-4.07H41.72v13h-5v-32h7.6c5.21,0,7.45,2.43,7.45,7.37v2.51c0,3.29-1.05,5.44-3.29,6.49C51,45,51.78,47.42,51.78,50.76V55.7a9.46,9.46,0,0,0,.55,3.88H47.21A9.87,9.87,0,0,1,46.75,55.65ZM41.72,42h2c1.88,0,3-.83,3-3.39V35.44c0-2.29-.78-3.29-2.56-3.29H41.72Z"/><path class="cls-1" d="M70.13,34.94v1.14c0,3.29-1,5.39-3.24,6.45,2.69,1,3.75,3.47,3.75,6.86V52c0,4.94-2.61,7.59-7.64,7.59H55.09v-32h7.59C67.89,27.57,70.13,30,70.13,34.94Zm-10,5.67h2c1.87,0,3-.83,3-3.39V35.44c0-2.29-.77-3.29-2.56-3.29H60.12Zm0,14.4H63c1.69,0,2.61-.78,2.61-3.15V49.07c0-3-1-3.89-3.25-3.89H60.12Z"/><path class="cls-1" d="M85.6,41.06v4.58H78.69V55h8.69v4.57H73.66v-32H87.38v4.58H78.69v8.91Z"/><path class="cls-1" d="M95,59.58H90.46v-32h6.31l5.16,19.16V27.57h4.48v32h-5.16L95,36.4Z"/><path class="cls-1" d="M121.24,59.58l-.87-5.8H114.2l-.87,5.8h-4.62l5.12-32h7.37l5.12,32Zm-1.55-10.15-2.43-16.19-2.42,16.19Z"/><path class="cls-1" d="M124.77,27.57H130l3.84,14.59,3.84-14.59h4.81L136.16,49v10.6h-5V49Z"/></g></g></svg>