<svg xmlns="http://www.w3.org/2000/svg" version="1.1" xmlns:xlink="http://www.w3.org/1999/xlink" xmlns:svgjs="http://svgjs.com/svgjs" viewBox="0 0 140 140" width="140" height="140"><g transform="matrix(5.833333333333333,0,0,5.833333333333333,0,0)"><path d="M13.979,12.034a6.828,6.828,0,0,0,1.521.4c0,.57,0,2.57,0,3.07.5-.5,3.5-3,4-3.461a6.015,6.015,0,0,0,4-5.539A6.265,6.265,0,0,0,17,.5a6.367,6.367,0,0,0-6.4,5" fill="none" stroke="#000000" stroke-linecap="round" stroke-linejoin="round"></path><path d="M15.5,23.5V21c0-.5-3-2-5.5-3V16s1-.35,1-2.5c.7,0,1-2,.032-2A4.329,4.329,0,0,0,11.5,9C11,7,6,7,5.5,9,3.394,8.57,5,11.212,5,11.5c-1,0-.7,2,0,2C5,15.65,6,16,6,16v2C3.5,19,.5,20.5.5,21v2.5" fill="none" stroke="#000000" stroke-linecap="round" stroke-linejoin="round"></path><path d="M14.25,6.241a.249.249,0,0,1,.25.25h0a.249.249,0,0,1-.25.25h0a.249.249,0,0,1-.25-.25h0a.25.25,0,0,1,.25-.25" fill="none" stroke="#000000" stroke-linecap="round" stroke-linejoin="round"></path><path d="M14.25 6.241L14.25 6.241" fill="none" stroke="#000000" stroke-linecap="round" stroke-linejoin="round"></path><path d="M17,6.241a.25.25,0,0,1,.25.25h0a.249.249,0,0,1-.25.25h0a.249.249,0,0,1-.25-.25h0a.25.25,0,0,1,.25-.25" fill="none" stroke="#000000" stroke-linecap="round" stroke-linejoin="round"></path><path d="M17 6.241L17 6.241" fill="none" stroke="#000000" stroke-linecap="round" stroke-linejoin="round"></path><path d="M19.75,6.241a.25.25,0,0,1,.25.25h0a.249.249,0,0,1-.25.25h0a.249.249,0,0,1-.25-.25h0a.25.25,0,0,1,.25-.25" fill="none" stroke="#000000" stroke-linecap="round" stroke-linejoin="round"></path><path d="M19.75 6.241L19.75 6.241" fill="none" stroke="#000000" stroke-linecap="round" stroke-linejoin="round"></path></g></svg>