<svg xmlns="http://www.w3.org/2000/svg" version="1.1" xmlns:xlink="http://www.w3.org/1999/xlink" xmlns:svgjs="http://svgjs.com/svgjs" viewBox="0 0 140 140" width="140" height="140"><g transform="matrix(5.833333333333333,0,0,5.833333333333333,0,0)"><path d="M23,6.628l-2-.5,1-2-2.464.7A4.48,4.48,0,0,0,12,8.128v1c-3.539.73-6.634-1.2-9.5-4.5q-.75,4,1.5,6l-3-.5c.405,2.069,1.362,3.7,4,4l-2.5,1c1,2,2.566,2.31,5,2.5a10.748,10.748,0,0,1-6.5,2c12.755,5.669,20-2.664,20-10V8.3Z" fill="none" stroke="#000000" stroke-linecap="round" stroke-linejoin="round"></path></g></svg>